<?xml version="1.0" encoding="iso-8859-1"?>
<!-- Generator: Adobe Illustrator 19.0.0, SVG Export Plug-In . SVG Version: 6.00 Build 0)  -->
<svg version="1.1" id="Layer_1" xmlns="http://www.w3.org/2000/svg" xmlns:xlink="http://www.w3.org/1999/xlink" x="0px" y="0px"
	 viewBox="0 0 512 512" style="enable-background:new 0 0 512 512;" xml:space="preserve">
<g>
	<g>
		<path d="M360.564,181.979c-2.611-3.679-7.714-4.546-11.392-1.933c-3.68,2.611-4.546,7.713-1.934,11.392
			c13.46,18.963,20.576,41.287,20.576,64.563c-0.002,61.652-50.161,111.81-111.814,111.81c-29.165,0-56.794-11.218-77.793-31.588
			c-3.241-3.143-8.411-3.063-11.553,0.175c-3.142,3.239-3.063,8.411,0.177,11.553c24.064,23.344,55.733,36.201,89.171,36.201
			c70.664,0,128.153-57.489,128.153-128.153C384.154,229.317,375.997,203.72,360.564,181.979z"/>
	</g>
</g>
<g>
	<g>
		<path d="M336.685,156.511c-22.751-18.483-51.406-28.663-80.687-28.663c-70.663,0-128.152,57.489-128.152,128.152
			c0,20.577,5.024,41.056,14.531,59.223c1.46,2.789,4.302,4.384,7.246,4.384c1.277,0,2.572-0.3,3.782-0.933
			c3.998-2.092,5.543-7.029,3.451-11.028c-8.287-15.839-12.669-33.697-12.669-51.647c0-61.652,50.157-111.811,111.81-111.811
			c25.538,0,50.534,8.88,70.382,25.005c3.504,2.846,8.648,2.313,11.495-1.19C340.72,164.502,340.188,159.355,336.685,156.511z"/>
	</g>
</g>
<g>
	<g>
		<path d="M256,171.425c-46.635,0-84.575,37.939-84.575,84.575c0,46.635,37.939,84.576,84.575,84.576
			c14.463,0,28.769-3.75,41.368-10.844c3.932-2.214,5.325-7.197,3.11-11.129c-2.215-3.933-7.197-5.325-11.129-3.11
			c-10.157,5.72-21.688,8.742-33.35,8.742c-37.623,0-68.233-30.61-68.233-68.234c0-37.624,30.61-68.233,68.233-68.233
			c37.625,0,68.234,30.61,68.234,68.233c0,14.591-4.57,28.523-13.218,40.294c-2.672,3.637-1.889,8.75,1.747,11.422
			c3.637,2.671,8.75,1.889,11.422-1.747c10.723-14.595,16.391-31.875,16.391-49.969C340.576,209.365,302.635,171.425,256,171.425z"
			/>
	</g>
</g>
<g>
	<g>
		<path d="M256,215.003c-22.606,0-40.997,18.392-40.997,40.997c0,22.607,18.392,40.999,40.997,40.999
			c22.607,0,40.999-18.392,40.999-40.999C296.999,233.394,278.607,215.003,256,215.003z M256,280.657
			c-13.596,0-24.656-11.061-24.656-24.657c0-13.596,11.06-24.656,24.656-24.656c13.596,0,24.657,11.06,24.657,24.656
			C280.657,269.595,269.596,280.657,256,280.657z"/>
	</g>
</g>
<g>
	<g>
		<path d="M468.939,247.829h-41.408c-4.153-88.204-75.157-159.207-163.36-163.359V43.062c0-4.512-3.657-8.171-8.171-8.171
			c-4.513,0-8.171,3.658-8.171,8.171v41.409c-15.73,0.742-31.206,3.619-46.111,8.598c-4.28,1.429-6.591,6.058-5.161,10.339
			c1.43,4.279,6.057,6.592,10.338,5.162c15.808-5.279,32.329-7.956,49.105-7.956c85.682,0,155.389,69.706,155.389,155.388
			c0,85.679-69.702,155.384-155.38,155.389c-0.003,0-0.005,0-0.009,0s-0.005,0-0.009,0
			c-85.677-0.004-155.379-69.709-155.379-155.389c0-27.393,7.26-54.338,20.994-77.924c13.332-22.897,32.421-42.162,55.2-55.715
			c3.878-2.307,5.152-7.322,2.843-11.199c-2.307-3.879-7.323-5.152-11.199-2.845c-25.158,14.968-46.24,36.246-60.966,61.535
			c-13.819,23.729-21.687,50.531-22.997,77.976H43.062v-0.001c-4.512,0-8.171,3.658-8.171,8.171c0,4.514,3.658,8.171,8.171,8.171
			H84.47c4.153,88.205,75.156,159.208,163.359,163.36v41.407c0,4.512,3.657,8.171,8.171,8.171c4.514,0,8.171-3.658,8.171-8.171
			v-41.407c88.205-4.153,159.207-75.155,163.36-163.36h41.408c4.514,0,8.171-3.657,8.171-8.171
			C477.11,251.488,473.453,247.829,468.939,247.829z"/>
	</g>
</g>
<g>
	<g>
		<path d="M503.829,0H8.171C3.658,0,0,3.658,0,8.171v495.659C0,508.342,3.658,512,8.171,512h495.659
			c4.514,0,8.171-3.658,8.171-8.171V8.171C512,3.658,508.343,0,503.829,0z M495.659,495.659H16.341V16.341h479.317V495.659z"/>
	</g>
</g>
<g>
	<g>
		<path d="M92.442,33.344H41.515c-4.512,0-8.171,3.657-8.171,8.171v50.927c0,4.512,3.658,8.171,8.171,8.171
			c4.512,0,8.171-3.658,8.171-8.171V49.686h42.756c4.513,0,8.171-3.658,8.171-8.171C100.612,37.001,96.955,33.344,92.442,33.344z"/>
	</g>
</g>
<g>
	<g>
		<path d="M470.486,33.344H419.56c-4.514,0-8.171,3.657-8.171,8.171c0,4.512,3.657,8.171,8.171,8.171h42.756v42.756
			c0,4.512,3.657,8.171,8.171,8.171c4.514,0,8.171-3.658,8.171-8.171V41.515C478.657,37.001,475,33.344,470.486,33.344z"/>
	</g>
</g>
<g>
	<g>
		<path d="M92.442,462.315H49.686V419.56c0-4.514-3.658-8.171-8.171-8.171c-4.512,0-8.171,3.657-8.171,8.171v50.927
			c0,4.511,3.658,8.171,8.171,8.171h50.927c4.513,0,8.171-3.658,8.171-8.171C100.612,465.973,96.955,462.315,92.442,462.315z"/>
	</g>
</g>
<g>
	<g>
		<path d="M470.486,411.389c-4.513,0-8.171,3.657-8.171,8.171v42.756H419.56c-4.514,0-8.171,3.657-8.171,8.171
			c0,4.512,3.657,8.171,8.171,8.171h50.927c4.514,0,8.171-3.658,8.171-8.171V419.56
			C478.657,415.046,474.999,411.389,470.486,411.389z"/>
	</g>
</g>
<g>
</g>
<g>
</g>
<g>
</g>
<g>
</g>
<g>
</g>
<g>
</g>
<g>
</g>
<g>
</g>
<g>
</g>
<g>
</g>
<g>
</g>
<g>
</g>
<g>
</g>
<g>
</g>
<g>
</g>
</svg>
